# Blender v2.77 (sub 0) OBJ File: 'excavator.blend'
# www.blender.org
mtllib excavator_arm0_wire.mtl
o Plane.009_Plane.011
v -11.719838 1.752755 -0.350306
v -11.961896 2.071750 -0.649693
v -11.854757 1.448519 -0.357943
v -12.203173 1.229731 -0.642056
v -3.700800 2.092127 -0.336322
v -3.622337 2.461813 -0.663678
v 0.130828 0.195360 -0.348582
v 0.469172 0.404640 -0.651418
v 0.164750 -0.146212 -0.357326
v 0.435250 -0.455075 -0.642674
v -3.700800 2.092127 0.336322
v -3.622337 2.461813 0.663678
v -11.719838 1.752755 0.350307
v -11.961896 2.071750 0.649694
v -11.854757 1.448519 0.357944
v -12.203173 1.229731 0.642057
v 0.164750 -0.146212 0.357326
v 0.435250 -0.455074 0.642674
v 0.130828 0.195360 0.348582
v 0.469172 0.404640 0.651418
v -11.657189 1.670195 -0.500000
v -3.715194 2.024331 -0.500000
v 0.050000 0.145358 -0.500000
v 0.050000 -0.015191 -0.500000
v -11.697540 1.547246 -0.500000
v -11.657189 1.670195 0.500000
v -11.697540 1.547246 0.500000
v 0.050000 -0.015191 0.500000
v 0.050000 0.145358 0.500000
v -3.715194 2.024331 0.500000
v 0.076307 0.411631 -0.250000
v -3.437876 2.165339 -0.250000
v -3.437876 2.165339 0.250000
v 0.076307 0.411631 0.250000
v -11.918825 1.674718 -0.250000
v -11.951007 1.576659 -0.250000
v -11.951007 1.576659 0.250000
v -11.918825 1.674718 0.250000
v -11.781147 1.306165 -0.250000
v 0.052182 -0.267683 -0.250000
v 0.052182 -0.267683 0.250000
v -11.781147 1.306165 0.250000
v 0.300000 -0.050643 -0.250000
v 0.300000 0.050000 -0.250000
v 0.300000 0.050000 0.250000
v 0.300000 -0.050643 0.250000
v -3.911320 2.265834 -0.250000
v -11.591115 1.923389 -0.250000
v -11.591115 1.923389 0.250000
v -3.911320 2.265834 0.250000
vt 0.5000 1.0000
vt 1.0000 1.0000
vt 1.0000 1.0000
vt 0.5000 1.0000
vt 0.5000 1.0000
vt 1.0000 1.0000
vt 1.0000 0.0000
vt 1.0000 0.0000
vt 1.0000 0.0000
vt 0.0000 0.0000
vt 0.0000 0.0000
vt 0.0000 0.0000
vt 0.0000 1.0000
vt 0.0000 1.0000
vt 0.0000 1.0000
vt -0.0011 0.0027
vt 1.0000 0.0000
vt 1.0000 0.0000
vt -0.0011 0.0027
vt -0.0011 0.0027
vt 1.0000 0.0000
vt 1.0000 1.0000
vt 1.0000 1.0000
vt 1.0000 1.0000
vt -0.0023 1.0030
vt -0.0023 1.0030
vt -0.0023 1.0030
vt 0.0000 0.6569
vt 0.0000 0.6569
vt 0.0000 0.6569
vt 0.0000 0.0000
vt 1.0000 0.0000
vt 1.0000 0.0000
vt 0.0000 0.0000
vt 0.0000 0.0000
vt 1.0000 0.0000
vt 1.0000 1.0000
vt 1.0000 1.0000
vt 1.0000 1.0000
vt 0.0000 1.0000
vt 0.0000 1.0000
vt 0.0000 1.0000
vt 0.0000 0.0000
vt 1.0000 0.0000
vt 1.0000 0.0000
vt 0.0000 0.0000
vt 0.0000 0.0000
vt 1.0000 0.0000
vt 1.0000 1.0000
vt 1.0000 1.0000
vt 1.0000 1.0000
vt 0.0000 1.0000
vt 0.0000 1.0000
vt 0.0000 1.0000
vt 0.0000 0.0000
vt 1.0000 0.0000
vt 1.0000 0.0000
vt 0.0000 0.0000
vt 0.0000 0.0000
vt 1.0000 0.0000
vt 1.0000 1.0000
vt 0.0000 1.0000
vt 0.0000 1.0000
vt 0.0000 1.0000
vt 0.0000 0.0000
vt 1.0000 0.0000
vt 1.0000 1.0000
vt 1.0000 1.0000
vt 1.0000 1.0000
vt 0.0000 1.0000
vt 0.0000 1.0000
vt 0.0000 1.0000
vt 0.0000 0.0000
vt 1.0000 0.0000
vt 1.0000 0.0000
vt 0.0000 0.0000
vt 0.0000 0.0000
vt 1.0000 0.0000
vt 1.0000 1.0000
vt 1.0000 1.0000
vt 1.0000 1.0000
vt 0.0000 1.0000
vt 0.0000 1.0000
vt 0.0000 1.0000
vn 0.0387 -0.8986 0.4371
vn 0.0150 -0.3465 -0.9379
vn -0.4024 -0.8110 0.4248
vn -0.1542 -0.3108 -0.9379
vn -0.8392 -0.0661 0.5399
vn -0.3427 0.0033 -0.9394
vn 0.1018 0.7667 0.6339
vn 0.0459 0.3451 -0.9374
vn 0.7642 -0.3235 0.5580
vn 0.3275 -0.1030 -0.9392
vn 0.7642 -0.3235 -0.5580
vn 0.3275 -0.1030 0.9392
vn 0.1018 0.7667 -0.6339
vn 0.0459 0.3451 0.9374
vn -0.8392 -0.0661 -0.5399
vn -0.3427 0.0033 0.9394
vn -0.4024 -0.8110 -0.4248
vn -0.1542 -0.3108 0.9379
vn 0.0387 -0.8986 -0.4371
vn 0.0150 -0.3465 0.9379
vn -0.2059 -0.4172 0.8852
vn 0.4107 0.8210 0.3966
vn 0.2682 -0.9634 0.0000
vn 0.8491 0.5283 0.0000
vn -0.2059 -0.4172 -0.8852
vn 0.4107 0.8210 -0.3966
vn -0.9697 -0.2444 0.0000
vn 0.0178 0.9998 -0.0000
vn 0.5329 -0.2368 0.8124
vn -0.8981 0.2641 0.3516
vn 0.7996 0.6006 0.0000
vn -0.8089 0.5879 0.0000
vn 0.5329 -0.2368 -0.8124
vn -0.8981 0.2641 -0.3516
vn 0.3651 -0.9310 0.0000
vn -0.9942 -0.1078 0.0000
vn 0.0827 0.6227 0.7781
vn -0.1250 -0.9385 0.3217
vn -0.7335 0.6797 -0.0000
vn -0.4394 -0.8983 0.0000
vn 0.0827 0.6227 -0.7781
vn -0.1250 -0.9385 -0.3217
vn 0.8883 0.4593 0.0000
vn 0.1782 -0.9840 0.0000
vn -0.5659 -0.0597 0.8223
vn 0.9327 -0.0297 0.3594
vn -0.6517 -0.7585 0.0000
vn 0.9026 -0.4305 -0.0000
vn -0.5659 -0.0597 -0.8223
vn 0.9327 -0.0297 -0.3594
vn -0.5771 0.8167 -0.0000
vn 0.9484 0.3172 -0.0000
vn 0.0197 -0.4728 0.8810
vn -0.0417 0.9186 0.3931
vn 0.7983 -0.6022 0.0000
vn 0.3715 0.9284 0.0000
vn 0.0197 -0.4728 -0.8810
vn -0.0417 0.9186 -0.3931
vn -0.6364 -0.7713 0.0000
vn -0.5613 0.8276 0.0000
usemtl Material.002
s off
f 21/1/1 22/2/1 5/3/1 1/4/1
f 22/2/2 21/1/2 2/5/2 6/6/2
f 22/2/3 23/7/3 7/8/3 5/3/3
f 23/7/4 22/2/4 6/6/4 8/9/4
f 23/7/5 24/10/5 9/11/5 7/8/5
f 24/10/6 23/7/6 8/9/6 10/12/6
f 24/10/7 25/13/7 3/14/7 9/11/7
f 25/13/8 24/10/8 10/12/8 4/15/8
f 25/13/9 21/1/9 1/4/9 3/14/9
f 21/1/10 25/13/10 4/15/10 2/5/10
f 26/16/11 27/17/11 15/18/11 13/19/11
f 27/17/12 26/16/12 14/20/12 16/21/12
f 27/17/13 28/22/13 17/23/13 15/18/13
f 28/22/14 27/17/14 16/21/14 18/24/14
f 28/22/15 29/25/15 19/26/15 17/23/15
f 29/25/16 28/22/16 18/24/16 20/27/16
f 29/25/17 30/28/17 11/29/17 19/26/17
f 30/28/18 29/25/18 20/27/18 12/30/18
f 30/28/19 26/16/19 13/19/19 11/29/19
f 26/16/20 30/28/20 12/30/20 14/20/20
f 31/31/21 32/32/21 5/33/21 7/34/21
f 32/32/22 31/31/22 8/35/22 6/36/22
f 32/32/23 33/37/23 11/38/23 5/33/23
f 33/37/24 32/32/24 6/36/24 12/39/24
f 33/37/25 34/40/25 19/41/25 11/38/25
f 34/40/26 33/37/26 12/39/26 20/42/26
f 34/40/27 31/31/27 7/34/27 19/41/27
f 31/31/28 34/40/28 20/42/28 8/35/28
f 35/43/29 36/44/29 3/45/29 1/46/29
f 36/44/30 35/43/30 2/47/30 4/48/30
f 36/44/31 37/49/31 15/50/31 3/45/31
f 37/49/32 36/44/32 4/48/32 16/51/32
f 37/49/33 38/52/33 13/53/33 15/50/33
f 38/52/34 37/49/34 16/51/34 14/54/34
f 38/52/35 35/43/35 1/46/35 13/53/35
f 35/43/36 38/52/36 14/54/36 2/47/36
f 39/55/37 40/56/37 9/57/37 3/58/37
f 40/56/38 39/55/38 4/59/38 10/60/38
f 40/56/39 41/61/39 17/23/39 9/57/39
f 41/61/40 40/56/40 10/60/40 18/24/40
f 41/61/41 42/62/41 15/63/41 17/23/41
f 42/62/42 41/61/42 18/24/42 16/64/42
f 42/62/43 39/55/43 3/58/43 15/63/43
f 39/55/44 42/62/44 16/64/44 4/59/44
f 43/65/45 44/66/45 7/8/45 9/11/45
f 44/66/46 43/65/46 10/12/46 8/9/46
f 44/66/47 45/67/47 19/68/47 7/8/47
f 45/67/48 44/66/48 8/9/48 20/69/48
f 45/67/49 46/70/49 17/71/49 19/68/49
f 46/70/50 45/67/50 20/69/50 18/72/50
f 46/70/51 43/65/51 9/11/51 17/71/51
f 43/65/52 46/70/52 18/72/52 10/12/52
f 47/73/53 48/74/53 1/75/53 5/76/53
f 48/74/54 47/73/54 6/77/54 2/78/54
f 48/74/55 49/79/55 13/80/55 1/75/55
f 49/79/56 48/74/56 2/78/56 14/81/56
f 49/79/57 50/82/57 11/83/57 13/80/57
f 50/82/58 49/79/58 14/81/58 12/84/58
f 50/82/59 47/73/59 5/76/59 11/83/59
f 47/73/60 50/82/60 12/84/60 6/77/60
