# Blender v2.77 (sub 0) OBJ File: 'excavator.blend'
# www.blender.org
mtllib excavator_arm1_wire.mtl
o Plane.010_Plane.012
v -11.030647 3.587396 -0.250075
v -10.649289 3.708460 -0.549923
v -11.513386 3.978042 -0.252905
v -11.522124 4.382241 -0.547093
v -11.637625 1.611984 -0.239974
v -11.326107 1.387210 -0.560026
v -21.961540 -5.649251 -0.252587
v -21.988020 -6.052210 -0.547414
v -22.368401 -5.304901 -0.257171
v -22.778706 -5.298049 -0.542830
v -11.637625 1.611984 0.239973
v -11.326107 1.387210 0.560025
v -11.030647 3.587396 0.250076
v -10.649288 3.708460 0.549924
v -11.513386 3.978042 0.252906
v -11.522124 4.382240 0.547094
v -22.368401 -5.304901 0.257169
v -22.778706 -5.298049 0.542829
v -21.961540 -5.649251 0.252585
v -21.988020 -6.052210 0.547412
v -11.128231 3.556417 -0.399999
v -11.696511 1.654473 -0.400000
v -21.953756 -5.530766 -0.400001
v -22.196861 -5.307765 -0.400001
v -11.510764 3.856791 -0.399999
v -11.128231 3.556417 0.400000
v -11.510764 3.856790 0.400000
v -22.196861 -5.307765 0.399999
v -21.953756 -5.530766 0.399999
v -11.696511 1.654473 0.399999
v -22.389324 -5.470469 -0.150001
v -22.159012 -5.681735 -0.150001
v -22.159012 -5.681735 0.149999
v -22.389324 -5.470469 0.149999
v -11.410295 1.739133 -0.150000
v -10.911539 3.408392 -0.149999
v -10.911539 3.408392 0.150000
v -11.410295 1.739133 0.150000
v -21.770021 -5.707295 -0.150001
v -11.686625 1.356162 -0.150000
v -11.686625 1.356162 0.150000
v -21.770021 -5.707295 0.149999
v -11.036594 3.802324 -0.149999
v -11.321129 4.025746 -0.149999
v -11.321129 4.025745 0.150000
v -11.036594 3.802324 0.150000
v -11.707525 4.017392 -0.149999
v -22.383783 -5.138726 -0.150001
v -22.383783 -5.138726 0.149999
v -11.707525 4.017392 0.150001
vn -0.8578 0.2612 0.4427
vn -0.3292 0.0993 -0.9390
vn -0.5091 0.7249 0.4641
vn -0.1976 0.2818 -0.9389
vn 0.5350 0.6176 0.5765
vn 0.2336 0.2515 -0.9392
vn 0.5288 -0.6177 0.5821
vn 0.2238 -0.2607 -0.9391
vn -0.5362 -0.6693 0.5144
vn -0.2097 -0.2675 -0.9404
vn -0.5362 -0.6693 -0.5144
vn -0.2097 -0.2675 0.9404
vn 0.5288 -0.6177 -0.5821
vn 0.2238 -0.2607 0.9391
vn 0.5350 0.6176 -0.5765
vn 0.2336 0.2515 0.9392
vn -0.5091 0.7249 -0.4641
vn -0.1976 0.2818 0.9389
vn -0.8578 0.2612 -0.4427
vn -0.3292 0.0993 0.9390
vn 0.3796 0.4421 0.8127
vn -0.6431 -0.6818 0.3486
vn -0.1623 0.9867 0.0000
vn -0.9080 -0.4191 0.0000
vn 0.3796 0.4421 -0.8127
vn -0.6431 -0.6818 -0.3486
vn 0.9921 -0.1254 0.0000
vn -0.4049 -0.9144 0.0000
vn -0.4597 0.1419 0.8767
vn 0.8815 -0.2607 0.3937
vn -0.8325 -0.5540 0.0000
vn 0.7530 -0.6581 -0.0000
vn -0.4597 0.1419 -0.8767
vn 0.8815 -0.2607 -0.3937
vn -0.4881 0.8728 0.0000
vn 0.9726 0.2327 0.0000
vn -0.2843 0.4043 0.8693
vn 0.5285 -0.7556 0.3870
vn -0.9821 0.1881 0.0000
vn 0.0858 -0.9963 -0.0000
vn -0.2843 0.4043 -0.8693
vn 0.5285 -0.7556 -0.3870
vn 0.2900 0.9570 0.0000
vn 0.8453 -0.5343 0.0000
vn -0.3356 -0.4154 0.8455
vn 0.5687 0.7324 0.3743
vn 0.2408 -0.9706 -0.0000
vn 0.8711 0.4911 0.0000
vn -0.3356 -0.4154 -0.8455
vn 0.5687 0.7324 -0.3743
vn -0.9996 -0.0277 0.0000
vn 0.2355 0.9719 0.0000
vn 0.3794 -0.4433 0.8121
vn -0.6110 0.7115 0.3472
vn 0.9957 0.0922 0.0000
vn -0.3741 0.9274 0.0000
vn 0.3794 -0.4433 -0.8121
vn -0.6110 0.7115 -0.3472
vn -0.1987 -0.9801 0.0000
vn -0.8915 0.4530 0.0000
usemtl Material.002
s off
f 21//1 22//1 5//1 1//1
f 22//2 21//2 2//2 6//2
f 22//3 23//3 7//3 5//3
f 23//4 22//4 6//4 8//4
f 23//5 24//5 9//5 7//5
f 24//6 23//6 8//6 10//6
f 24//7 25//7 3//7 9//7
f 25//8 24//8 10//8 4//8
f 25//9 21//9 1//9 3//9
f 21//10 25//10 4//10 2//10
f 26//11 27//11 15//11 13//11
f 27//12 26//12 14//12 16//12
f 27//13 28//13 17//13 15//13
f 28//14 27//14 16//14 18//14
f 28//15 29//15 19//15 17//15
f 29//16 28//16 18//16 20//16
f 29//17 30//17 11//17 19//17
f 30//18 29//18 20//18 12//18
f 30//19 26//19 13//19 11//19
f 26//20 30//20 12//20 14//20
f 31//21 32//21 7//21 9//21
f 32//22 31//22 10//22 8//22
f 32//23 33//23 19//23 7//23
f 33//24 32//24 8//24 20//24
f 33//25 34//25 17//25 19//25
f 34//26 33//26 20//26 18//26
f 34//27 31//27 9//27 17//27
f 31//28 34//28 18//28 10//28
f 35//29 36//29 1//29 5//29
f 36//30 35//30 6//30 2//30
f 36//31 37//31 13//31 1//31
f 37//32 36//32 2//32 14//32
f 37//33 38//33 11//33 13//33
f 38//34 37//34 14//34 12//34
f 38//35 35//35 5//35 11//35
f 35//36 38//36 12//36 6//36
f 39//37 40//37 5//37 7//37
f 40//38 39//38 8//38 6//38
f 40//39 41//39 11//39 5//39
f 41//40 40//40 6//40 12//40
f 41//41 42//41 19//41 11//41
f 42//42 41//42 12//42 20//42
f 42//43 39//43 7//43 19//43
f 39//44 42//44 20//44 8//44
f 43//45 44//45 3//45 1//45
f 44//46 43//46 2//46 4//46
f 44//47 45//47 15//47 3//47
f 45//48 44//48 4//48 16//48
f 45//49 46//49 13//49 15//49
f 46//50 45//50 16//50 14//50
f 46//51 43//51 1//51 13//51
f 43//52 46//52 14//52 2//52
f 47//53 48//53 9//53 3//53
f 48//54 47//54 4//54 10//54
f 48//55 49//55 17//55 9//55
f 49//56 48//56 10//56 18//56
f 49//57 50//57 15//57 17//57
f 50//58 49//58 18//58 16//58
f 50//59 47//59 3//59 15//59
f 47//60 50//60 16//60 4//60
