# Blender v2.77 (sub 0) OBJ File: 'excavator.blend'
# www.blender.org
mtllib excavator_bucket_wire.mtl
o Plane.011_Plane.014
v -23.852993 -4.753202 -1.750001
v -23.852993 -4.753202 -2.250001
v -22.046070 -5.077944 -1.750001
v -22.046070 -5.077944 -2.250001
v -23.900381 -9.114550 -1.750002
v -23.900381 -9.114550 -2.250002
v -23.745676 -9.543934 -1.750002
v -23.745676 -9.543934 -2.250002
v -25.883484 -8.097626 -1.750002
v -25.883484 -8.097626 -2.250002
v -26.251408 -7.289113 -1.750001
v -26.251408 -7.289113 -2.250001
v -25.889896 -5.907471 -1.750001
v -25.889896 -5.907471 -2.250001
v -25.267870 -5.411573 -1.750001
v -25.267870 -5.411573 -2.250001
v -25.072281 -5.147366 -1.750001
v -25.072281 -5.147366 -2.250001
v -24.374472 -5.210938 -1.750001
v -24.374472 -5.210938 -2.250001
v -22.267681 -5.193647 -2.000001
v -21.824459 -4.962240 -2.000001
v -23.786005 -4.994054 -2.000001
v -23.919981 -4.512350 -2.000001
v -23.800501 -4.941945 1.844706
v -23.905485 -4.564461 2.155293
v -22.228884 -5.173392 1.858698
v -21.863256 -4.982499 2.141299
v -25.692522 -7.936282 -2.000002
v -26.074446 -8.258969 -2.000002
v -26.002323 -7.267750 -2.000001
v -26.500492 -7.310476 -2.000001
v -24.970036 -5.375499 -2.000001
v -25.174526 -4.919232 -2.000001
v -24.197395 -5.387403 -2.000001
v -24.551548 -5.034472 -2.000001
v -25.680349 -6.043813 -2.000001
v -26.099443 -5.771130 -2.000001
v -25.087963 -5.585155 -2.000001
v -25.447777 -5.237991 -2.000001
v -24.135580 -9.199285 -2.000002
v -23.665182 -9.029815 -2.000002
v -23.899130 -9.346579 -2.000002
v -23.592222 -9.741289 -2.000002
v -24.269754 -5.315296 1.798402
v -24.479189 -5.106580 2.201597
v -24.991392 -5.327846 1.847086
v -25.153170 -4.966888 2.152912
v -25.135794 -5.539004 1.830247
v -25.399946 -5.284144 2.169750
v -25.729328 -6.011945 1.839372
v -26.050461 -5.802999 2.160625
v -26.059797 -7.272680 1.840272
v -26.443018 -7.305548 2.159725
v -25.738514 -7.975141 1.837282
v -26.028454 -8.220113 2.162716
v -23.874495 -9.378257 1.864161
v -23.616858 -9.709612 2.135836
v -24.030497 -9.161427 1.791748
v -23.770266 -9.067673 2.208249
v -22.415985 -5.414391 -2.000002
v -22.190193 -5.860495 -2.000002
v -22.415985 -5.414391 1.999999
v -22.190193 -5.860495 1.999999
v -23.778625 -5.020573 -2.000001
v -22.407990 -5.266904 -2.000001
v -24.170238 -9.103100 -2.000002
v -24.240862 -8.907084 -2.000002
v -25.685093 -7.930006 -2.000002
v -25.987059 -7.266437 -2.000002
v -25.669075 -6.051149 -2.000001
v -25.086422 -5.586640 -2.000001
v -24.954981 -5.409088 -2.000001
v -24.290237 -5.469647 -2.000001
v -22.292128 -5.033722 -1.750001
v -23.606936 -4.797424 -1.750001
v -23.606936 -4.797425 1.750000
v -22.292128 -5.033723 1.749999
v -22.046070 -5.077944 -2.000001
v -23.852993 -4.753202 -2.000001
v -23.852993 -4.753202 -2.000001
v -22.046070 -5.077944 -2.000001
v -26.251408 -7.289113 -2.000001
v -25.883484 -8.097626 -2.000002
v -25.883484 -8.097626 -2.000002
v -26.251408 -7.289113 -2.000001
v -24.374472 -5.210938 -2.000001
v -25.072281 -5.147366 -2.000001
v -25.072281 -5.147366 -2.000001
v -24.374472 -5.210938 -2.000001
v -23.852993 -4.753202 -2.000001
v -24.374472 -5.210938 -2.000001
v -24.374472 -5.210938 -2.000001
v -23.852993 -4.753202 -2.000001
v -25.267870 -5.411573 -2.000001
v -25.889896 -5.907471 -2.000001
v -25.889896 -5.907471 -2.000001
v -25.267870 -5.411573 -2.000001
v -25.072281 -5.147366 -2.000001
v -25.267870 -5.411573 -2.000001
v -25.267870 -5.411573 -2.000001
v -25.072281 -5.147366 -2.000001
v -23.745676 -9.543934 -2.000002
v -23.900381 -9.114550 -2.000002
v -23.900381 -9.114550 -2.000002
v -23.745676 -9.543934 -2.000002
v -25.883484 -8.097626 -2.000002
v -23.745676 -9.543934 -2.000002
v -23.745676 -9.543934 -2.000002
v -25.883484 -8.097626 -2.000002
v -25.889896 -5.907471 -2.000001
v -26.251408 -7.289113 -2.000001
v -26.251408 -7.289113 -2.000001
v -25.889896 -5.907471 -2.000001
v -23.900381 -9.114550 -2.000002
v -22.046070 -5.077944 -2.000001
v -22.046070 -5.077944 -2.000001
v -23.900381 -9.114550 -2.000002
v -23.778625 -5.020574 2.000000
v -24.290237 -5.469647 2.000000
v -24.954981 -5.409089 1.999999
v -25.086422 -5.586641 1.999999
v -25.669071 -6.051150 1.999999
v -25.987059 -7.266438 1.999999
v -25.685093 -7.930007 1.999999
v -24.240862 -8.907084 1.999999
v -24.170238 -9.103100 1.999999
v -22.407990 -5.266906 1.999999
v -26.147860 -7.516661 -1.750002
v -25.987032 -7.870079 -1.750002
v -25.987032 -7.870079 1.749999
v -26.147860 -7.516661 1.749999
v -24.623440 -5.188256 -1.750001
v -24.823311 -5.170048 -1.750001
v -24.823311 -5.170048 1.749999
v -24.623440 -5.188257 1.749999
v -24.040880 -4.918122 -1.750001
v -24.186584 -5.046018 -1.750001
v -24.186584 -5.046018 1.750000
v -24.040880 -4.918123 1.750000
v -25.463350 -5.567416 -1.750001
v -25.694416 -5.751628 -1.750001
v -25.694414 -5.751628 1.749999
v -25.463350 -5.567418 1.749999
v -25.221029 -5.348299 -1.750001
v -25.119122 -5.210640 -1.750001
v -25.119122 -5.210641 1.749999
v -25.221029 -5.348300 1.749999
v -23.830418 -9.308734 -1.750002
v -23.815639 -9.349750 -1.750002
v -23.815639 -9.349750 1.749999
v -23.830418 -9.308734 1.749999
v -25.676420 -8.237713 -1.750002
v -23.952740 -9.403847 -1.750002
v -23.952740 -9.403847 1.749999
v -25.676420 -8.237713 1.749999
v -25.953178 -6.149329 -1.750001
v -26.188126 -7.047255 -1.750001
v -26.188124 -7.047256 1.749999
v -25.953178 -6.149330 1.749999
v -24.129608 -5.261356 1.750000
v -24.129608 -5.261356 -1.750001
v -22.547953 -5.587024 -1.750002
v -22.547953 -5.587025 1.749999
v -22.150429 -5.305122 1.749999
v -22.198730 -5.410266 1.749999
v -22.198730 -5.410266 -1.750002
v -22.150429 -5.305120 -1.750002
vn 0.2680 -0.9634 0.0000
vn -0.8865 -0.4628 0.0000
vn 0.6345 0.3313 0.6984
vn -0.1551 0.5577 0.8154
vn -0.1551 0.5577 -0.8154
vn 0.6345 0.3313 -0.6984
vn -0.9995 -0.0308 -0.0000
vn 0.1812 -0.0077 0.9834
vn 0.1812 -0.0077 -0.9834
vn 0.4683 0.8836 -0.0000
vn 0.4843 -0.6228 0.6145
vn 0.4843 -0.6228 -0.6145
vn 0.7639 0.6454 0.0000
vn -0.3898 -0.3293 0.8600
vn -0.3898 -0.3293 -0.8600
vn 0.9963 0.0855 -0.0000
vn -0.5359 -0.0460 0.8430
vn -0.5359 -0.0460 -0.8430
vn 0.8382 -0.5454 0.0000
vn -0.4439 0.2888 0.8483
vn -0.4439 0.2888 -0.8483
vn 0.7196 -0.6943 0.0000
vn -0.2273 0.2193 0.9488
vn -0.2273 0.2193 -0.9488
vn 0.4090 -0.9125 0.0000
vn -0.2459 0.5486 0.7991
vn -0.2459 0.5486 -0.7991
vn 0.3096 -0.9509 0.0000
vn -0.0534 0.1641 0.9850
vn -0.0534 0.1641 -0.9850
vn -0.6172 0.4666 0.6336
vn 0.7552 0.0480 0.6537
vn 0.2138 -0.7414 -0.6360
vn -0.5370 -0.2449 -0.8072
vn 0.8018 0.4122 -0.4327
vn -0.2198 0.8386 -0.4985
vn 0.7268 0.2784 -0.6279
vn 0.2437 -0.8396 -0.4855
vn -0.1954 0.7318 0.6529
vn -0.5067 0.6292 -0.5894
vn -0.7337 -0.3182 -0.6004
vn 0.6687 0.5245 0.5270
vn 0.1769 0.9842 0.0000
vn 0.0000 0.0000 -1.0000
vn -0.9102 -0.4142 0.0000
vn 0.6123 0.5166 -0.5986
vn -0.6435 -0.5602 -0.5217
vn 0.7937 0.0689 -0.6044
vn -0.8620 -0.0733 -0.5016
vn 0.0907 0.9959 0.0000
vn 0.3947 -0.6104 -0.6867
vn -0.3231 0.8103 -0.4889
vn 0.3609 -0.7960 -0.4859
vn -0.1843 0.7488 -0.6367
vn -0.6597 0.7515 0.0000
vn -0.6234 0.7819 0.0000
vn 0.6696 -0.4382 -0.5997
vn -0.7255 0.4695 -0.5033
vn 0.6616 -0.5231 -0.5372
vn -0.5812 0.5930 -0.5573
vn -0.8037 0.5950 0.0000
vn 0.9408 0.3390 0.0000
vn -0.3463 -0.6045 -0.7174
vn 0.4310 -0.0674 -0.8998
vn -0.0711 -0.0005 -0.9975
vn 0.5781 -0.7380 -0.3480
vn -0.5603 -0.8283 0.0000
vn -0.9674 0.2531 0.0000
vn 0.9087 -0.4174 0.0000
vn 0.2814 -0.8602 0.4252
vn 0.2738 -0.9258 0.2606
vn 0.3752 -0.8027 -0.4636
vn -0.1320 0.3966 0.9084
vn 0.3695 -0.8198 0.4376
vn 0.4050 -0.7690 -0.4946
vn -0.2985 0.7149 0.6323
vn 0.6797 -0.6339 0.3691
vn 0.6806 -0.6139 -0.3999
vn -0.4335 0.4373 0.7879
vn 0.7417 -0.4884 0.4598
vn 0.7544 -0.4929 -0.4336
vn -0.6179 0.3995 0.6772
vn 0.8821 0.0770 0.4648
vn 0.8957 0.0775 -0.4379
vn -0.7377 -0.0627 0.6722
vn 0.7143 0.5786 0.3937
vn 0.6865 0.5662 -0.4563
vn -0.5407 -0.4651 0.7010
vn 0.4935 0.7451 0.4486
vn -0.5404 0.3624 -0.7594
vn 0.5395 -0.7292 0.4210
vn -0.7889 -0.2723 0.5510
vn -0.7894 -0.6038 -0.1112
vn -0.0409 0.0245 0.9989
vn -0.7893 -0.3863 0.4773
vn 0.1670 -0.6740 0.7196
vn -0.3766 0.5828 0.7201
vn -0.6120 0.4163 -0.6724
vn -0.1089 -0.7370 -0.6670
vn -0.6734 -0.2078 0.7094
vn 0.7654 0.1491 0.6261
vn 0.7110 0.3949 -0.5818
vn -0.6376 0.1730 -0.7507
vn -0.6156 -0.3173 0.7214
vn 0.4968 0.4599 0.7360
vn 0.2219 0.6812 -0.6976
vn -0.7699 -0.0653 -0.6348
vn -0.5045 -0.4657 0.7270
vn 0.4561 0.5144 0.7262
vn 0.2349 0.7058 -0.6683
vn -0.6847 -0.2010 -0.7006
vn -0.5589 -0.6966 0.4498
vn 0.5667 0.7403 0.3618
vn 0.2748 0.9197 -0.2803
vn -0.8378 -0.4089 -0.3618
vn -0.2389 0.9289 0.2829
vn 0.3450 -0.9153 0.2080
vn 0.6859 -0.7134 -0.1436
vn 0.0922 0.9485 -0.3031
vn 0.5830 -0.5319 0.6141
vn -0.8149 0.0344 0.5786
vn -0.8334 -0.1171 -0.5401
vn 0.4134 -0.6762 -0.6098
vn -0.2893 -0.6335 0.7176
vn 0.0502 0.6952 0.7171
vn -0.2302 0.7091 -0.6665
vn -0.5427 -0.5087 -0.6683
vn -0.8753 -0.1983 -0.4410
vn -0.9721 -0.1873 0.1412
vn -0.1112 0.9908 0.0774
vn -0.4329 0.8908 -0.1380
vn -0.3575 -0.9301 -0.0846
vn -0.3930 -0.9188 0.0373
vn -0.9738 -0.1843 0.1333
vn -0.4061 0.8796 0.2478
vn 0.4084 -0.8797 0.2436
vn -0.9376 -0.2111 -0.2763
vn -0.3717 0.8617 -0.3454
vn 0.4542 -0.8611 -0.2286
vn 0.1359 -0.7840 -0.6057
vn 0.6584 0.5168 -0.5472
vn 0.5948 0.5699 0.5669
vn 0.0540 -0.7757 0.6287
usemtl None.004
s 1
f 65//1 66//2 3//3 1//4
f 66//2 65//1 2//5 4//6
f 66//2 67//7 5//8 3//3
f 67//7 66//2 4//6 6//9
f 67//7 68//10 7//11 5//8
f 68//10 67//7 6//9 8//12
f 68//10 69//13 9//14 7//11
f 69//13 68//10 8//12 10//15
f 69//13 70//16 11//17 9//14
f 70//16 69//13 10//15 12//18
f 70//16 71//19 13//20 11//17
f 71//19 70//16 12//18 14//21
f 71//19 72//22 15//23 13//20
f 72//22 71//19 14//21 16//24
f 72//22 73//25 17//26 15//23
f 73//25 72//22 16//24 18//27
f 73//25 74//28 19//29 17//26
f 74//28 73//25 18//27 20//30
f 74//28 65//1 1//4 19//29
f 65//1 74//28 20//30 2//5
f 75//31 76//32 23//33 21//34
f 76//32 75//31 22//35 24//36
f 76//32 77//37 25//38 23//33
f 77//37 76//32 24//36 26//39
f 77//37 78//40 27//41 25//38
f 78//40 77//37 26//39 28//42
f 78//40 75//31 21//34 27//41
f 75//31 78//40 28//42 22//35
f 79//43 80//43 1//4 3//3
f 80//43 79//43 4//6 2//5
f 80//43 81//44 23//33 1//4
f 81//44 80//43 2//5 24//36
f 81//44 82//44 21//34 23//33
f 82//44 81//44 24//36 22//35
f 82//44 79//43 3//3 21//34
f 79//43 82//44 22//35 4//6
f 83//45 84//45 9//14 11//17
f 84//45 83//45 12//18 10//15
f 84//45 85//44 29//46 9//14
f 85//44 84//45 10//15 30//47
f 85//44 86//44 31//48 29//46
f 86//44 85//44 30//47 32//49
f 86//44 83//45 11//17 31//48
f 83//45 86//44 32//49 12//18
f 87//50 88//50 17//26 19//29
f 88//50 87//50 20//30 18//27
f 88//50 89//44 33//51 17//26
f 89//44 88//50 18//27 34//52
f 89//44 90//44 35//53 33//51
f 90//44 89//44 34//52 36//54
f 90//44 87//50 19//29 35//53
f 87//50 90//44 36//54 20//30
f 91//55 92//55 19//29 1//4
f 92//55 91//55 2//5 20//30
f 92//55 93//44 35//53 19//29
f 93//44 92//55 20//30 36//54
f 93//44 94//44 23//33 35//53
f 94//44 93//44 36//54 24//36
f 94//44 91//55 1//4 23//33
f 91//55 94//44 24//36 2//5
f 95//56 96//56 13//20 15//23
f 96//56 95//56 16//24 14//21
f 96//56 97//44 37//57 13//20
f 97//44 96//56 14//21 38//58
f 97//44 98//44 39//59 37//57
f 98//44 97//44 38//58 40//60
f 98//44 95//56 15//23 39//59
f 95//56 98//44 40//60 16//24
f 99//61 100//61 15//23 17//26
f 100//61 99//61 18//27 16//24
f 100//61 101//44 39//59 15//23
f 101//44 100//61 16//24 40//60
f 101//44 102//44 33//51 39//59
f 102//44 101//44 40//60 34//52
f 102//44 99//61 17//26 33//51
f 99//61 102//44 34//52 18//27
f 103//62 104//62 5//8 7//11
f 104//62 103//62 8//12 6//9
f 104//62 105//44 41//63 5//8
f 105//44 104//62 6//9 42//64
f 105//44 106//44 43//65 41//63
f 106//44 105//44 42//64 44//66
f 106//44 103//62 7//11 43//65
f 103//62 106//44 44//66 8//12
f 107//67 108//67 7//11 9//14
f 108//67 107//67 10//15 8//12
f 108//67 109//44 43//65 7//11
f 109//44 108//67 8//12 44//66
f 109//44 110//44 29//46 43//65
f 110//44 109//44 44//66 30//47
f 110//44 107//67 9//14 29//46
f 107//67 110//44 30//47 10//15
f 111//68 112//68 11//17 13//20
f 112//68 111//68 14//21 12//18
f 112//68 113//44 31//48 11//17
f 113//44 112//68 12//18 32//49
f 113//44 114//44 37//57 31//48
f 114//44 113//44 32//49 38//58
f 114//44 111//68 13//20 37//57
f 111//68 114//44 38//58 14//21
f 115//69 116//69 3//3 5//8
f 116//69 115//69 6//9 4//6
f 116//69 117//44 21//34 3//3
f 117//44 116//69 4//6 22//35
f 117//44 118//44 41//63 21//34
f 118//44 117//44 22//35 42//64
f 118//44 115//69 5//8 41//63
f 115//69 118//44 42//64 6//9
f 119//70 120//71 45//72 25//38
f 120//71 119//70 26//39 46//73
f 120//71 121//74 47//75 45//72
f 121//74 120//71 46//73 48//76
f 121//74 122//77 49//78 47//75
f 122//77 121//74 48//76 50//79
f 122//77 123//80 51//81 49//78
f 123//80 122//77 50//79 52//82
f 123//80 124//83 53//84 51//81
f 124//83 123//80 52//82 54//85
f 124//83 125//86 55//87 53//84
f 125//86 124//83 54//85 56//88
f 125//86 126//89 57//90 55//87
f 126//89 125//86 56//88 58//91
f 126//89 127//92 59//93 57//90
f 127//92 126//89 58//91 60//94
f 127//92 128//95 27//41 59//93
f 128//95 127//92 60//94 28//42
f 128//95 119//70 25//38 27//41
f 119//70 128//95 28//42 26//39
f 129//96 130//97 29//46 31//48
f 130//97 129//96 32//49 30//47
f 130//97 131//98 55//87 29//46
f 131//98 130//97 30//47 56//88
f 131//98 132//99 53//84 55//87
f 132//99 131//98 56//88 54//85
f 132//99 129//96 31//48 53//84
f 129//96 132//99 54//85 32//49
f 133//100 134//101 33//51 35//53
f 134//101 133//100 36//54 34//52
f 134//101 135//102 47//75 33//51
f 135//102 134//101 34//52 48//76
f 135//102 136//103 45//72 47//75
f 136//103 135//102 48//76 46//73
f 136//103 133//100 35//53 45//72
f 133//100 136//103 46//73 36//54
f 137//104 138//105 35//53 23//33
f 138//105 137//104 24//36 36//54
f 138//105 139//106 45//72 35//53
f 139//106 138//105 36//54 46//73
f 139//106 140//107 25//38 45//72
f 140//107 139//106 46//73 26//39
f 140//107 137//104 23//33 25//38
f 137//104 140//107 26//39 24//36
f 141//108 142//109 37//57 39//59
f 142//109 141//108 40//60 38//58
f 142//109 143//110 51//81 37//57
f 143//110 142//109 38//58 52//82
f 143//110 144//111 49//78 51//81
f 144//111 143//110 52//82 50//79
f 144//111 141//108 39//59 49//78
f 141//108 144//111 50//79 40//60
f 145//112 146//113 39//59 33//51
f 146//113 145//112 34//52 40//60
f 146//113 147//114 49//78 39//59
f 147//114 146//113 40//60 50//79
f 147//114 148//115 47//75 49//78
f 148//115 147//114 50//79 48//76
f 148//115 145//112 33//51 47//75
f 145//112 148//115 48//76 34//52
f 149//116 150//117 41//63 43//65
f 150//117 149//116 44//66 42//64
f 150//117 151//118 59//93 41//63
f 151//118 150//117 42//64 60//94
f 151//118 152//119 57//90 59//93
f 152//119 151//118 60//94 58//91
f 152//119 149//116 43//65 57//90
f 149//116 152//119 58//91 44//66
f 153//120 154//121 43//65 29//46
f 154//121 153//120 30//47 44//66
f 154//121 155//122 57//90 43//65
f 155//122 154//121 44//66 58//91
f 155//122 156//123 55//87 57//90
f 156//123 155//122 58//91 56//88
f 156//123 153//120 29//46 55//87
f 153//120 156//123 56//88 30//47
f 157//124 158//125 31//48 37//57
f 158//125 157//124 38//58 32//49
f 158//125 159//126 53//84 31//48
f 159//126 158//125 32//49 54//85
f 159//126 160//127 51//81 53//84
f 160//127 159//126 54//85 52//82
f 160//127 157//124 37//57 51//81
f 157//124 160//127 52//82 38//58
f 161//128 162//129 35//130 45//131
f 162//129 161//128 46//132 36//133
f 162//129 163//134 61//135 35//130
f 163//134 162//129 36//133 62//136
f 163//134 164//137 63//138 61//135
f 164//137 163//134 62//136 64//139
f 164//137 161//128 45//131 63//138
f 161//128 164//137 64//139 46//132
f 165//140 166//141 63//138 27//41
f 166//141 165//140 28//42 64//139
f 166//141 167//142 61//135 63//138
f 167//142 166//141 64//139 62//136
f 167//142 168//143 21//34 61//135
f 168//143 167//142 62//136 22//35
f 168//143 165//140 27//41 21//34
f 165//140 168//143 22//35 28//42
